<mxfile host="app.diagrams.net" modified="2023-11-28T17:00:59.114Z" agent="Mozilla/5.0 (Windows NT 10.0; Win64; x64) AppleWebKit/537.36 (KHTML, like Gecko) Chrome/119.0.0.0 Safari/537.36" etag="yY-plfICIfOJSqertfdZ" version="22.1.4" type="device">
  <diagram id="C5RBs43oDa-KdzZeNtuy" name="Page-1">
    <mxGraphModel dx="1401" dy="790" grid="0" gridSize="10" guides="1" tooltips="1" connect="1" arrows="1" fold="1" page="0" pageScale="1" pageWidth="1169" pageHeight="827" background="none" math="0" shadow="0">
      <root>
        <mxCell id="WIyWlLk6GJQsqaUBKTNV-0" />
        <mxCell id="WIyWlLk6GJQsqaUBKTNV-1" parent="WIyWlLk6GJQsqaUBKTNV-0" />
        <mxCell id="39d2uWJTGJTtqu2DU5e5-67" value="Airport" style="swimlane;fontStyle=0;align=center;verticalAlign=top;childLayout=stackLayout;horizontal=1;startSize=26;horizontalStack=0;resizeParent=1;resizeLast=0;collapsible=1;marginBottom=0;rounded=1;shadow=0;strokeWidth=1;labelBackgroundColor=none;fillColor=#F2CC8F;strokeColor=#E07A5F;fontColor=#393C56;sketch=1;curveFitting=1;jiggle=2;" vertex="1" parent="WIyWlLk6GJQsqaUBKTNV-1">
          <mxGeometry x="430" y="20" width="160" height="120" as="geometry">
            <mxRectangle x="230" y="140" width="160" height="26" as="alternateBounds" />
          </mxGeometry>
        </mxCell>
        <mxCell id="39d2uWJTGJTtqu2DU5e5-68" value="- id:int&#xa;" style="text;align=left;verticalAlign=top;spacingLeft=4;spacingRight=4;overflow=hidden;rotatable=0;points=[[0,0.5],[1,0.5]];portConstraint=eastwest;rounded=1;labelBackgroundColor=none;fontColor=#393C56;sketch=1;curveFitting=1;jiggle=2;" vertex="1" parent="39d2uWJTGJTtqu2DU5e5-67">
          <mxGeometry y="26" width="160" height="26" as="geometry" />
        </mxCell>
        <mxCell id="39d2uWJTGJTtqu2DU5e5-70" value="- name:String" style="text;align=left;verticalAlign=top;spacingLeft=4;spacingRight=4;overflow=hidden;rotatable=0;points=[[0,0.5],[1,0.5]];portConstraint=eastwest;rounded=1;shadow=0;html=0;labelBackgroundColor=none;fontColor=#393C56;sketch=1;curveFitting=1;jiggle=2;" vertex="1" parent="39d2uWJTGJTtqu2DU5e5-67">
          <mxGeometry y="52" width="160" height="26" as="geometry" />
        </mxCell>
        <mxCell id="39d2uWJTGJTtqu2DU5e5-71" value="" style="line;html=1;strokeWidth=1;align=left;verticalAlign=middle;spacingTop=-1;spacingLeft=3;spacingRight=3;rotatable=0;labelPosition=right;points=[];portConstraint=eastwest;rounded=1;labelBackgroundColor=none;fillColor=#F2CC8F;strokeColor=#E07A5F;fontColor=#393C56;sketch=1;curveFitting=1;jiggle=2;" vertex="1" parent="39d2uWJTGJTtqu2DU5e5-67">
          <mxGeometry y="78" width="160" height="8" as="geometry" />
        </mxCell>
        <mxCell id="39d2uWJTGJTtqu2DU5e5-74" value="Flight" style="swimlane;fontStyle=0;align=center;verticalAlign=top;childLayout=stackLayout;horizontal=1;startSize=26;horizontalStack=0;resizeParent=1;resizeLast=0;collapsible=1;marginBottom=0;rounded=1;shadow=0;strokeWidth=1;labelBackgroundColor=none;fillColor=#F2CC8F;strokeColor=#E07A5F;fontColor=#393C56;sketch=1;curveFitting=1;jiggle=2;" vertex="1" parent="WIyWlLk6GJQsqaUBKTNV-1">
          <mxGeometry x="687" y="20" width="160" height="190" as="geometry">
            <mxRectangle x="230" y="140" width="160" height="26" as="alternateBounds" />
          </mxGeometry>
        </mxCell>
        <mxCell id="39d2uWJTGJTtqu2DU5e5-134" value="- id:int&#xa;" style="text;align=left;verticalAlign=top;spacingLeft=4;spacingRight=4;overflow=hidden;rotatable=0;points=[[0,0.5],[1,0.5]];portConstraint=eastwest;rounded=1;labelBackgroundColor=none;fontColor=#393C56;sketch=1;curveFitting=1;jiggle=2;" vertex="1" parent="39d2uWJTGJTtqu2DU5e5-74">
          <mxGeometry y="26" width="160" height="26" as="geometry" />
        </mxCell>
        <mxCell id="39d2uWJTGJTtqu2DU5e5-135" value="- departureAirport:String&#xa;" style="text;align=left;verticalAlign=top;spacingLeft=4;spacingRight=4;overflow=hidden;rotatable=0;points=[[0,0.5],[1,0.5]];portConstraint=eastwest;rounded=1;labelBackgroundColor=none;fontColor=#393C56;sketch=1;curveFitting=1;jiggle=2;" vertex="1" parent="39d2uWJTGJTtqu2DU5e5-74">
          <mxGeometry y="52" width="160" height="26" as="geometry" />
        </mxCell>
        <mxCell id="39d2uWJTGJTtqu2DU5e5-136" value="- landingAirport:String&#xa;" style="text;align=left;verticalAlign=top;spacingLeft=4;spacingRight=4;overflow=hidden;rotatable=0;points=[[0,0.5],[1,0.5]];portConstraint=eastwest;rounded=1;labelBackgroundColor=none;fontColor=#393C56;sketch=1;curveFitting=1;jiggle=2;" vertex="1" parent="39d2uWJTGJTtqu2DU5e5-74">
          <mxGeometry y="78" width="160" height="26" as="geometry" />
        </mxCell>
        <mxCell id="39d2uWJTGJTtqu2DU5e5-137" value="- departureTime:LocalDate&#xa;" style="text;align=left;verticalAlign=top;spacingLeft=4;spacingRight=4;overflow=hidden;rotatable=0;points=[[0,0.5],[1,0.5]];portConstraint=eastwest;rounded=1;labelBackgroundColor=none;fontColor=#393C56;sketch=1;curveFitting=1;jiggle=2;" vertex="1" parent="39d2uWJTGJTtqu2DU5e5-74">
          <mxGeometry y="104" width="160" height="26" as="geometry" />
        </mxCell>
        <mxCell id="39d2uWJTGJTtqu2DU5e5-75" value="- landingTime:LocalDate&#xa;" style="text;align=left;verticalAlign=top;spacingLeft=4;spacingRight=4;overflow=hidden;rotatable=0;points=[[0,0.5],[1,0.5]];portConstraint=eastwest;rounded=1;labelBackgroundColor=none;fontColor=#393C56;sketch=1;curveFitting=1;jiggle=2;" vertex="1" parent="39d2uWJTGJTtqu2DU5e5-74">
          <mxGeometry y="130" width="160" height="26" as="geometry" />
        </mxCell>
        <mxCell id="39d2uWJTGJTtqu2DU5e5-76" value="" style="line;html=1;strokeWidth=1;align=left;verticalAlign=middle;spacingTop=-1;spacingLeft=3;spacingRight=3;rotatable=0;labelPosition=right;points=[];portConstraint=eastwest;rounded=1;labelBackgroundColor=none;fillColor=#F2CC8F;strokeColor=#E07A5F;fontColor=#393C56;sketch=1;curveFitting=1;jiggle=2;" vertex="1" parent="39d2uWJTGJTtqu2DU5e5-74">
          <mxGeometry y="156" width="160" height="8" as="geometry" />
        </mxCell>
        <mxCell id="39d2uWJTGJTtqu2DU5e5-77" value="methods ()" style="text;align=left;verticalAlign=top;spacingLeft=4;spacingRight=4;overflow=hidden;rotatable=0;points=[[0,0.5],[1,0.5]];portConstraint=eastwest;rounded=1;labelBackgroundColor=none;fontColor=#393C56;sketch=1;curveFitting=1;jiggle=2;" vertex="1" parent="39d2uWJTGJTtqu2DU5e5-74">
          <mxGeometry y="164" width="160" height="26" as="geometry" />
        </mxCell>
        <mxCell id="39d2uWJTGJTtqu2DU5e5-84" value="AirBus" style="swimlane;fontStyle=0;align=center;verticalAlign=top;childLayout=stackLayout;horizontal=1;startSize=26;horizontalStack=0;resizeParent=1;resizeLast=0;collapsible=1;marginBottom=0;rounded=1;shadow=0;strokeWidth=1;labelBackgroundColor=none;fillColor=#F2CC8F;strokeColor=#E07A5F;fontColor=#393C56;sketch=1;curveFitting=1;jiggle=2;" vertex="1" parent="WIyWlLk6GJQsqaUBKTNV-1">
          <mxGeometry x="330" y="387" width="160" height="112" as="geometry">
            <mxRectangle x="230" y="140" width="160" height="26" as="alternateBounds" />
          </mxGeometry>
        </mxCell>
        <mxCell id="39d2uWJTGJTtqu2DU5e5-85" value="&#xa;" style="text;align=left;verticalAlign=top;spacingLeft=4;spacingRight=4;overflow=hidden;rotatable=0;points=[[0,0.5],[1,0.5]];portConstraint=eastwest;rounded=1;labelBackgroundColor=none;fontColor=#393C56;sketch=1;curveFitting=1;jiggle=2;" vertex="1" parent="39d2uWJTGJTtqu2DU5e5-84">
          <mxGeometry y="26" width="160" height="26" as="geometry" />
        </mxCell>
        <mxCell id="39d2uWJTGJTtqu2DU5e5-86" value="" style="line;html=1;strokeWidth=1;align=left;verticalAlign=middle;spacingTop=-1;spacingLeft=3;spacingRight=3;rotatable=0;labelPosition=right;points=[];portConstraint=eastwest;rounded=1;labelBackgroundColor=none;fillColor=#F2CC8F;strokeColor=#E07A5F;fontColor=#393C56;sketch=1;curveFitting=1;jiggle=2;" vertex="1" parent="39d2uWJTGJTtqu2DU5e5-84">
          <mxGeometry y="52" width="160" height="8" as="geometry" />
        </mxCell>
        <mxCell id="39d2uWJTGJTtqu2DU5e5-87" value="+ situation ()" style="text;align=left;verticalAlign=top;spacingLeft=4;spacingRight=4;overflow=hidden;rotatable=0;points=[[0,0.5],[1,0.5]];portConstraint=eastwest;rounded=1;labelBackgroundColor=none;fontColor=#393C56;sketch=1;curveFitting=1;jiggle=2;" vertex="1" parent="39d2uWJTGJTtqu2DU5e5-84">
          <mxGeometry y="60" width="160" height="26" as="geometry" />
        </mxCell>
        <mxCell id="39d2uWJTGJTtqu2DU5e5-89" value="Boeing" style="swimlane;fontStyle=0;align=center;verticalAlign=top;childLayout=stackLayout;horizontal=1;startSize=26;horizontalStack=0;resizeParent=1;resizeLast=0;collapsible=1;marginBottom=0;rounded=1;shadow=0;strokeWidth=1;labelBackgroundColor=none;fillColor=#F2CC8F;strokeColor=#E07A5F;fontColor=#393C56;sketch=1;curveFitting=1;jiggle=2;" vertex="1" parent="WIyWlLk6GJQsqaUBKTNV-1">
          <mxGeometry x="130" y="387" width="160" height="112" as="geometry">
            <mxRectangle x="230" y="140" width="160" height="26" as="alternateBounds" />
          </mxGeometry>
        </mxCell>
        <mxCell id="39d2uWJTGJTtqu2DU5e5-90" value="&#xa;" style="text;align=left;verticalAlign=top;spacingLeft=4;spacingRight=4;overflow=hidden;rotatable=0;points=[[0,0.5],[1,0.5]];portConstraint=eastwest;rounded=1;labelBackgroundColor=none;fontColor=#393C56;sketch=1;curveFitting=1;jiggle=2;" vertex="1" parent="39d2uWJTGJTtqu2DU5e5-89">
          <mxGeometry y="26" width="160" height="26" as="geometry" />
        </mxCell>
        <mxCell id="39d2uWJTGJTtqu2DU5e5-91" value="" style="line;html=1;strokeWidth=1;align=left;verticalAlign=middle;spacingTop=-1;spacingLeft=3;spacingRight=3;rotatable=0;labelPosition=right;points=[];portConstraint=eastwest;rounded=1;labelBackgroundColor=none;fillColor=#F2CC8F;strokeColor=#E07A5F;fontColor=#393C56;sketch=1;curveFitting=1;jiggle=2;" vertex="1" parent="39d2uWJTGJTtqu2DU5e5-89">
          <mxGeometry y="52" width="160" height="8" as="geometry" />
        </mxCell>
        <mxCell id="39d2uWJTGJTtqu2DU5e5-92" value="+ situation ()" style="text;align=left;verticalAlign=top;spacingLeft=4;spacingRight=4;overflow=hidden;rotatable=0;points=[[0,0.5],[1,0.5]];portConstraint=eastwest;rounded=1;labelBackgroundColor=none;fontColor=#393C56;sketch=1;curveFitting=1;jiggle=2;" vertex="1" parent="39d2uWJTGJTtqu2DU5e5-89">
          <mxGeometry y="60" width="160" height="26" as="geometry" />
        </mxCell>
        <mxCell id="39d2uWJTGJTtqu2DU5e5-94" value="Pilots" style="swimlane;fontStyle=0;align=center;verticalAlign=top;childLayout=stackLayout;horizontal=1;startSize=26;horizontalStack=0;resizeParent=1;resizeLast=0;collapsible=1;marginBottom=0;rounded=1;shadow=0;strokeWidth=1;labelBackgroundColor=none;fillColor=#F2CC8F;strokeColor=#E07A5F;fontColor=#393C56;sketch=1;curveFitting=1;jiggle=2;" vertex="1" parent="WIyWlLk6GJQsqaUBKTNV-1">
          <mxGeometry x="874" y="161" width="160" height="112" as="geometry">
            <mxRectangle x="230" y="140" width="160" height="26" as="alternateBounds" />
          </mxGeometry>
        </mxCell>
        <mxCell id="39d2uWJTGJTtqu2DU5e5-95" value="- experienceLevel:int" style="text;align=left;verticalAlign=top;spacingLeft=4;spacingRight=4;overflow=hidden;rotatable=0;points=[[0,0.5],[1,0.5]];portConstraint=eastwest;rounded=1;labelBackgroundColor=none;fontColor=#393C56;sketch=1;curveFitting=1;jiggle=2;" vertex="1" parent="39d2uWJTGJTtqu2DU5e5-94">
          <mxGeometry y="26" width="160" height="26" as="geometry" />
        </mxCell>
        <mxCell id="39d2uWJTGJTtqu2DU5e5-96" value="" style="line;html=1;strokeWidth=1;align=left;verticalAlign=middle;spacingTop=-1;spacingLeft=3;spacingRight=3;rotatable=0;labelPosition=right;points=[];portConstraint=eastwest;rounded=1;labelBackgroundColor=none;fillColor=#F2CC8F;strokeColor=#E07A5F;fontColor=#393C56;sketch=1;curveFitting=1;jiggle=2;" vertex="1" parent="39d2uWJTGJTtqu2DU5e5-94">
          <mxGeometry y="52" width="160" height="8" as="geometry" />
        </mxCell>
        <mxCell id="39d2uWJTGJTtqu2DU5e5-104" value="Copilot" style="swimlane;fontStyle=0;align=center;verticalAlign=top;childLayout=stackLayout;horizontal=1;startSize=26;horizontalStack=0;resizeParent=1;resizeLast=0;collapsible=1;marginBottom=0;rounded=1;shadow=0;strokeWidth=1;labelBackgroundColor=none;fillColor=#F2CC8F;strokeColor=#E07A5F;fontColor=#393C56;sketch=1;curveFitting=1;jiggle=2;" vertex="1" parent="WIyWlLk6GJQsqaUBKTNV-1">
          <mxGeometry x="956.5" y="396.5" width="160" height="112" as="geometry">
            <mxRectangle x="230" y="140" width="160" height="26" as="alternateBounds" />
          </mxGeometry>
        </mxCell>
        <mxCell id="39d2uWJTGJTtqu2DU5e5-105" value="- experienceLevel:int" style="text;align=left;verticalAlign=top;spacingLeft=4;spacingRight=4;overflow=hidden;rotatable=0;points=[[0,0.5],[1,0.5]];portConstraint=eastwest;rounded=1;labelBackgroundColor=none;fontColor=#393C56;sketch=1;curveFitting=1;jiggle=2;" vertex="1" parent="39d2uWJTGJTtqu2DU5e5-104">
          <mxGeometry y="26" width="160" height="26" as="geometry" />
        </mxCell>
        <mxCell id="39d2uWJTGJTtqu2DU5e5-106" value="" style="line;html=1;strokeWidth=1;align=left;verticalAlign=middle;spacingTop=-1;spacingLeft=3;spacingRight=3;rotatable=0;labelPosition=right;points=[];portConstraint=eastwest;rounded=1;labelBackgroundColor=none;fillColor=#F2CC8F;strokeColor=#E07A5F;fontColor=#393C56;sketch=1;curveFitting=1;jiggle=2;" vertex="1" parent="39d2uWJTGJTtqu2DU5e5-104">
          <mxGeometry y="52" width="160" height="8" as="geometry" />
        </mxCell>
        <mxCell id="39d2uWJTGJTtqu2DU5e5-142" style="edgeStyle=orthogonalEdgeStyle;rounded=1;orthogonalLoop=1;jettySize=auto;html=1;entryX=0;entryY=0.5;entryDx=0;entryDy=0;sketch=1;curveFitting=1;jiggle=2;labelBackgroundColor=none;strokeColor=#E07A5F;fontColor=default;" edge="1" parent="WIyWlLk6GJQsqaUBKTNV-1" source="39d2uWJTGJTtqu2DU5e5-109" target="39d2uWJTGJTtqu2DU5e5-70">
          <mxGeometry relative="1" as="geometry" />
        </mxCell>
        <mxCell id="39d2uWJTGJTtqu2DU5e5-143" value="1" style="edgeLabel;html=1;align=center;verticalAlign=middle;resizable=0;points=[];fontStyle=1;rounded=1;sketch=1;curveFitting=1;jiggle=2;labelBackgroundColor=none;fontColor=#393C56;" vertex="1" connectable="0" parent="39d2uWJTGJTtqu2DU5e5-142">
          <mxGeometry x="0.7548" y="1" relative="1" as="geometry">
            <mxPoint as="offset" />
          </mxGeometry>
        </mxCell>
        <mxCell id="39d2uWJTGJTtqu2DU5e5-144" value="1..*" style="edgeLabel;html=1;align=center;verticalAlign=middle;resizable=0;points=[];fontStyle=1;rounded=1;sketch=1;curveFitting=1;jiggle=2;labelBackgroundColor=none;fontColor=#393C56;" vertex="1" connectable="0" parent="39d2uWJTGJTtqu2DU5e5-142">
          <mxGeometry x="-0.8497" y="1" relative="1" as="geometry">
            <mxPoint as="offset" />
          </mxGeometry>
        </mxCell>
        <mxCell id="39d2uWJTGJTtqu2DU5e5-109" value="Airplanes" style="swimlane;fontStyle=0;align=center;verticalAlign=top;childLayout=stackLayout;horizontal=1;startSize=26;horizontalStack=0;resizeParent=1;resizeLast=0;collapsible=1;marginBottom=0;rounded=1;shadow=0;strokeWidth=1;labelBackgroundColor=none;fillColor=#F2CC8F;strokeColor=#E07A5F;fontColor=#393C56;sketch=1;curveFitting=1;jiggle=2;" vertex="1" parent="WIyWlLk6GJQsqaUBKTNV-1">
          <mxGeometry x="233" y="161" width="160" height="112" as="geometry">
            <mxRectangle x="230" y="140" width="160" height="26" as="alternateBounds" />
          </mxGeometry>
        </mxCell>
        <mxCell id="39d2uWJTGJTtqu2DU5e5-110" value="&#xa;" style="text;align=left;verticalAlign=top;spacingLeft=4;spacingRight=4;overflow=hidden;rotatable=0;points=[[0,0.5],[1,0.5]];portConstraint=eastwest;rounded=1;labelBackgroundColor=none;fontColor=#393C56;sketch=1;curveFitting=1;jiggle=2;" vertex="1" parent="39d2uWJTGJTtqu2DU5e5-109">
          <mxGeometry y="26" width="160" height="26" as="geometry" />
        </mxCell>
        <mxCell id="39d2uWJTGJTtqu2DU5e5-111" value="" style="line;html=1;strokeWidth=1;align=left;verticalAlign=middle;spacingTop=-1;spacingLeft=3;spacingRight=3;rotatable=0;labelPosition=right;points=[];portConstraint=eastwest;rounded=1;labelBackgroundColor=none;fillColor=#F2CC8F;strokeColor=#E07A5F;fontColor=#393C56;sketch=1;curveFitting=1;jiggle=2;" vertex="1" parent="39d2uWJTGJTtqu2DU5e5-109">
          <mxGeometry y="52" width="160" height="8" as="geometry" />
        </mxCell>
        <mxCell id="39d2uWJTGJTtqu2DU5e5-151" style="edgeStyle=orthogonalEdgeStyle;rounded=1;orthogonalLoop=1;jettySize=auto;html=1;sketch=1;curveFitting=1;jiggle=2;labelBackgroundColor=none;strokeColor=#E07A5F;fontColor=default;" edge="1" parent="39d2uWJTGJTtqu2DU5e5-109" source="39d2uWJTGJTtqu2DU5e5-112">
          <mxGeometry relative="1" as="geometry">
            <mxPoint x="636.9999999999998" y="73.00000000000011" as="targetPoint" />
          </mxGeometry>
        </mxCell>
        <mxCell id="39d2uWJTGJTtqu2DU5e5-152" value="1..*" style="edgeLabel;html=1;align=center;verticalAlign=middle;resizable=0;points=[];fontStyle=1;rounded=1;sketch=1;curveFitting=1;jiggle=2;labelBackgroundColor=none;fontColor=#393C56;" vertex="1" connectable="0" parent="39d2uWJTGJTtqu2DU5e5-151">
          <mxGeometry x="0.8672" relative="1" as="geometry">
            <mxPoint as="offset" />
          </mxGeometry>
        </mxCell>
        <mxCell id="39d2uWJTGJTtqu2DU5e5-153" value="1" style="edgeLabel;html=1;align=center;verticalAlign=middle;resizable=0;points=[];fontStyle=1;rounded=1;sketch=1;curveFitting=1;jiggle=2;labelBackgroundColor=none;fontColor=#393C56;" vertex="1" connectable="0" parent="39d2uWJTGJTtqu2DU5e5-151">
          <mxGeometry x="-0.933" relative="1" as="geometry">
            <mxPoint as="offset" />
          </mxGeometry>
        </mxCell>
        <mxCell id="39d2uWJTGJTtqu2DU5e5-112" value="+ situation ()" style="text;align=left;verticalAlign=top;spacingLeft=4;spacingRight=4;overflow=hidden;rotatable=0;points=[[0,0.5],[1,0.5]];portConstraint=eastwest;rounded=1;labelBackgroundColor=none;fontColor=#393C56;sketch=1;curveFitting=1;jiggle=2;" vertex="1" parent="39d2uWJTGJTtqu2DU5e5-109">
          <mxGeometry y="60" width="160" height="26" as="geometry" />
        </mxCell>
        <mxCell id="39d2uWJTGJTtqu2DU5e5-114" value="AirlineCompany" style="swimlane;fontStyle=0;align=center;verticalAlign=top;childLayout=stackLayout;horizontal=1;startSize=26;horizontalStack=0;resizeParent=1;resizeLast=0;collapsible=1;marginBottom=0;rounded=1;shadow=0;strokeWidth=1;labelBackgroundColor=none;fillColor=#F2CC8F;strokeColor=#E07A5F;fontColor=#393C56;sketch=1;curveFitting=1;jiggle=2;" vertex="1" parent="WIyWlLk6GJQsqaUBKTNV-1">
          <mxGeometry x="550" y="273" width="160" height="112" as="geometry">
            <mxRectangle x="230" y="140" width="160" height="26" as="alternateBounds" />
          </mxGeometry>
        </mxCell>
        <mxCell id="39d2uWJTGJTtqu2DU5e5-115" value="- id:int" style="text;align=left;verticalAlign=top;spacingLeft=4;spacingRight=4;overflow=hidden;rotatable=0;points=[[0,0.5],[1,0.5]];portConstraint=eastwest;rounded=1;labelBackgroundColor=none;fontColor=#393C56;sketch=1;curveFitting=1;jiggle=2;" vertex="1" parent="39d2uWJTGJTtqu2DU5e5-114">
          <mxGeometry y="26" width="160" height="26" as="geometry" />
        </mxCell>
        <mxCell id="39d2uWJTGJTtqu2DU5e5-116" value="" style="line;html=1;strokeWidth=1;align=left;verticalAlign=middle;spacingTop=-1;spacingLeft=3;spacingRight=3;rotatable=0;labelPosition=right;points=[];portConstraint=eastwest;rounded=1;labelBackgroundColor=none;fillColor=#F2CC8F;strokeColor=#E07A5F;fontColor=#393C56;sketch=1;curveFitting=1;jiggle=2;" vertex="1" parent="39d2uWJTGJTtqu2DU5e5-114">
          <mxGeometry y="52" width="160" height="8" as="geometry" />
        </mxCell>
        <mxCell id="39d2uWJTGJTtqu2DU5e5-119" value="Pilot" style="swimlane;fontStyle=0;align=center;verticalAlign=top;childLayout=stackLayout;horizontal=1;startSize=26;horizontalStack=0;resizeParent=1;resizeLast=0;collapsible=1;marginBottom=0;rounded=1;shadow=0;strokeWidth=1;labelBackgroundColor=none;fillColor=#F2CC8F;strokeColor=#E07A5F;fontColor=#393C56;sketch=1;curveFitting=1;jiggle=2;" vertex="1" parent="WIyWlLk6GJQsqaUBKTNV-1">
          <mxGeometry x="791.5" y="396.5" width="160" height="112" as="geometry">
            <mxRectangle x="230" y="140" width="160" height="26" as="alternateBounds" />
          </mxGeometry>
        </mxCell>
        <mxCell id="39d2uWJTGJTtqu2DU5e5-120" value="- experienceLevel:int&#xa;" style="text;align=left;verticalAlign=top;spacingLeft=4;spacingRight=4;overflow=hidden;rotatable=0;points=[[0,0.5],[1,0.5]];portConstraint=eastwest;rounded=1;labelBackgroundColor=none;fontColor=#393C56;sketch=1;curveFitting=1;jiggle=2;" vertex="1" parent="39d2uWJTGJTtqu2DU5e5-119">
          <mxGeometry y="26" width="160" height="26" as="geometry" />
        </mxCell>
        <mxCell id="39d2uWJTGJTtqu2DU5e5-121" value="" style="line;html=1;strokeWidth=1;align=left;verticalAlign=middle;spacingTop=-1;spacingLeft=3;spacingRight=3;rotatable=0;labelPosition=right;points=[];portConstraint=eastwest;rounded=1;labelBackgroundColor=none;fillColor=#F2CC8F;strokeColor=#E07A5F;fontColor=#393C56;sketch=1;curveFitting=1;jiggle=2;" vertex="1" parent="39d2uWJTGJTtqu2DU5e5-119">
          <mxGeometry y="52" width="160" height="8" as="geometry" />
        </mxCell>
        <mxCell id="39d2uWJTGJTtqu2DU5e5-127" value="" style="endArrow=block;endSize=10;endFill=0;shadow=0;strokeWidth=1;rounded=1;edgeStyle=elbowEdgeStyle;elbow=vertical;labelBackgroundColor=none;strokeColor=#E07A5F;fontColor=default;sketch=1;curveFitting=1;jiggle=2;" edge="1" parent="WIyWlLk6GJQsqaUBKTNV-1">
          <mxGeometry width="160" relative="1" as="geometry">
            <mxPoint x="410" y="387" as="sourcePoint" />
            <mxPoint x="315" y="277" as="targetPoint" />
            <Array as="points">
              <mxPoint x="618" y="321" />
              <mxPoint x="798" y="321" />
            </Array>
          </mxGeometry>
        </mxCell>
        <mxCell id="39d2uWJTGJTtqu2DU5e5-128" value="" style="endArrow=block;endSize=10;endFill=0;shadow=0;strokeWidth=1;rounded=1;edgeStyle=elbowEdgeStyle;elbow=vertical;labelBackgroundColor=none;strokeColor=#E07A5F;fontColor=default;sketch=1;curveFitting=1;jiggle=2;" edge="1" parent="WIyWlLk6GJQsqaUBKTNV-1">
          <mxGeometry width="160" relative="1" as="geometry">
            <mxPoint x="210" y="387" as="sourcePoint" />
            <mxPoint x="315" y="277" as="targetPoint" />
            <Array as="points">
              <mxPoint x="284" y="321" />
              <mxPoint x="464" y="321" />
            </Array>
          </mxGeometry>
        </mxCell>
        <mxCell id="39d2uWJTGJTtqu2DU5e5-129" value="" style="endArrow=block;endSize=10;endFill=0;shadow=0;strokeWidth=1;rounded=1;edgeStyle=elbowEdgeStyle;elbow=vertical;labelBackgroundColor=none;strokeColor=#E07A5F;fontColor=default;sketch=1;curveFitting=1;jiggle=2;" edge="1" parent="WIyWlLk6GJQsqaUBKTNV-1">
          <mxGeometry width="160" relative="1" as="geometry">
            <mxPoint x="1022.5" y="391.5" as="sourcePoint" />
            <mxPoint x="957.5" y="273" as="targetPoint" />
            <Array as="points">
              <mxPoint x="1260.5" y="317" />
              <mxPoint x="1440.5" y="317" />
            </Array>
          </mxGeometry>
        </mxCell>
        <mxCell id="39d2uWJTGJTtqu2DU5e5-130" value="" style="endArrow=block;endSize=10;endFill=0;shadow=0;strokeWidth=1;rounded=1;edgeStyle=elbowEdgeStyle;elbow=vertical;labelBackgroundColor=none;strokeColor=#E07A5F;fontColor=default;sketch=1;curveFitting=1;jiggle=2;" edge="1" parent="WIyWlLk6GJQsqaUBKTNV-1">
          <mxGeometry width="160" relative="1" as="geometry">
            <mxPoint x="892.5" y="391.5" as="sourcePoint" />
            <mxPoint x="957.5" y="273" as="targetPoint" />
            <Array as="points">
              <mxPoint x="926.5" y="317" />
              <mxPoint x="1106.5" y="317" />
            </Array>
          </mxGeometry>
        </mxCell>
        <mxCell id="39d2uWJTGJTtqu2DU5e5-145" style="edgeStyle=orthogonalEdgeStyle;rounded=1;orthogonalLoop=1;jettySize=auto;html=1;entryX=0;entryY=0.5;entryDx=0;entryDy=0;sketch=1;curveFitting=1;jiggle=2;labelBackgroundColor=none;strokeColor=#E07A5F;fontColor=default;" edge="1" parent="WIyWlLk6GJQsqaUBKTNV-1" source="39d2uWJTGJTtqu2DU5e5-70" target="39d2uWJTGJTtqu2DU5e5-135">
          <mxGeometry relative="1" as="geometry" />
        </mxCell>
        <mxCell id="39d2uWJTGJTtqu2DU5e5-147" value="1..*" style="edgeLabel;html=1;align=center;verticalAlign=middle;resizable=0;points=[];fontStyle=1;rounded=1;sketch=1;curveFitting=1;jiggle=2;labelBackgroundColor=none;fontColor=#393C56;" vertex="1" connectable="0" parent="39d2uWJTGJTtqu2DU5e5-145">
          <mxGeometry x="0.6082" y="1" relative="1" as="geometry">
            <mxPoint as="offset" />
          </mxGeometry>
        </mxCell>
        <mxCell id="39d2uWJTGJTtqu2DU5e5-148" value="1..*" style="edgeLabel;html=1;align=center;verticalAlign=middle;resizable=0;points=[];fontStyle=1;rounded=1;sketch=1;curveFitting=1;jiggle=2;labelBackgroundColor=none;fontColor=#393C56;" vertex="1" connectable="0" parent="39d2uWJTGJTtqu2DU5e5-145">
          <mxGeometry x="-0.7835" relative="1" as="geometry">
            <mxPoint as="offset" />
          </mxGeometry>
        </mxCell>
        <mxCell id="39d2uWJTGJTtqu2DU5e5-149" style="edgeStyle=orthogonalEdgeStyle;rounded=1;orthogonalLoop=1;jettySize=auto;html=1;entryX=0.538;entryY=0.009;entryDx=0;entryDy=0;entryPerimeter=0;sketch=1;curveFitting=1;jiggle=2;labelBackgroundColor=none;strokeColor=#E07A5F;fontColor=default;" edge="1" parent="WIyWlLk6GJQsqaUBKTNV-1" source="39d2uWJTGJTtqu2DU5e5-136" target="39d2uWJTGJTtqu2DU5e5-94">
          <mxGeometry relative="1" as="geometry" />
        </mxCell>
        <mxCell id="39d2uWJTGJTtqu2DU5e5-150" style="edgeStyle=orthogonalEdgeStyle;rounded=1;orthogonalLoop=1;jettySize=auto;html=1;entryX=0.5;entryY=0;entryDx=0;entryDy=0;sketch=1;curveFitting=1;jiggle=2;labelBackgroundColor=none;strokeColor=#E07A5F;fontColor=default;" edge="1" parent="WIyWlLk6GJQsqaUBKTNV-1" source="39d2uWJTGJTtqu2DU5e5-136" target="39d2uWJTGJTtqu2DU5e5-114">
          <mxGeometry relative="1" as="geometry" />
        </mxCell>
        <mxCell id="39d2uWJTGJTtqu2DU5e5-155" value="" style="endArrow=diamondThin;endFill=0;endSize=24;html=1;rounded=1;entryX=0.012;entryY=0.388;entryDx=0;entryDy=0;entryPerimeter=0;sketch=1;curveFitting=1;jiggle=2;labelBackgroundColor=none;strokeColor=#E07A5F;fontColor=default;" edge="1" parent="WIyWlLk6GJQsqaUBKTNV-1" target="39d2uWJTGJTtqu2DU5e5-116">
          <mxGeometry width="160" relative="1" as="geometry">
            <mxPoint x="393" y="260" as="sourcePoint" />
            <mxPoint x="553" y="260" as="targetPoint" />
            <Array as="points">
              <mxPoint x="480" y="330" />
            </Array>
          </mxGeometry>
        </mxCell>
        <mxCell id="39d2uWJTGJTtqu2DU5e5-160" value="1..*" style="edgeLabel;html=1;align=center;verticalAlign=middle;resizable=0;points=[];fontStyle=1;rounded=1;sketch=1;curveFitting=1;jiggle=2;labelBackgroundColor=none;fontColor=#393C56;" vertex="1" connectable="0" parent="39d2uWJTGJTtqu2DU5e5-155">
          <mxGeometry x="-0.812" relative="1" as="geometry">
            <mxPoint as="offset" />
          </mxGeometry>
        </mxCell>
        <mxCell id="39d2uWJTGJTtqu2DU5e5-161" value="1" style="edgeLabel;html=1;align=center;verticalAlign=middle;resizable=0;points=[];fontStyle=1;rounded=1;sketch=1;curveFitting=1;jiggle=2;labelBackgroundColor=none;fontColor=#393C56;" vertex="1" connectable="0" parent="39d2uWJTGJTtqu2DU5e5-155">
          <mxGeometry x="0.4968" y="1" relative="1" as="geometry">
            <mxPoint as="offset" />
          </mxGeometry>
        </mxCell>
        <mxCell id="39d2uWJTGJTtqu2DU5e5-158" value="" style="endArrow=diamondThin;endFill=0;endSize=24;html=1;rounded=1;exitX=0;exitY=0.75;exitDx=0;exitDy=0;sketch=1;curveFitting=1;jiggle=2;labelBackgroundColor=none;strokeColor=#E07A5F;fontColor=default;" edge="1" parent="WIyWlLk6GJQsqaUBKTNV-1" source="39d2uWJTGJTtqu2DU5e5-94">
          <mxGeometry width="160" relative="1" as="geometry">
            <mxPoint x="864" y="260" as="sourcePoint" />
            <mxPoint x="710" y="340" as="targetPoint" />
            <Array as="points">
              <mxPoint x="800" y="340" />
            </Array>
          </mxGeometry>
        </mxCell>
        <mxCell id="39d2uWJTGJTtqu2DU5e5-162" value="1" style="edgeLabel;html=1;align=center;verticalAlign=middle;resizable=0;points=[];fontStyle=1;rounded=1;sketch=1;curveFitting=1;jiggle=2;labelBackgroundColor=none;fontColor=#393C56;" vertex="1" connectable="0" parent="39d2uWJTGJTtqu2DU5e5-158">
          <mxGeometry x="0.5621" y="1" relative="1" as="geometry">
            <mxPoint as="offset" />
          </mxGeometry>
        </mxCell>
        <mxCell id="39d2uWJTGJTtqu2DU5e5-163" value="1..*" style="edgeLabel;html=1;align=center;verticalAlign=middle;resizable=0;points=[];fontStyle=1;rounded=1;sketch=1;curveFitting=1;jiggle=2;labelBackgroundColor=none;fontColor=#393C56;" vertex="1" connectable="0" parent="39d2uWJTGJTtqu2DU5e5-158">
          <mxGeometry x="-0.7312" relative="1" as="geometry">
            <mxPoint as="offset" />
          </mxGeometry>
        </mxCell>
      </root>
    </mxGraphModel>
  </diagram>
</mxfile>
